# xmcd CD database file
#
# Track frame offsets:
#	151
#	15877
#	29451
#	47767
#	67952
#	86022
#	98992
#	114249
#	131494
#	146695
#	161833
#	176283
#	193584
#	207662
#	225927
#	245142
#	259359
#	273290
#	289843
#	304298
#	320287
#	334930
#
# Disc length: 4696 seconds
#
# Revision: 0
# Processed by: cddbd v1.5.1PL0 Copyright (c) Steve Scherf et al.
# Submitted via: CDex 1.50
#
DISCID=3e125616
DTITLE=Rod Stewart - Stardust...The Great American Songbook, Volume III
DYEAR=2003
DGENRE=Jazz
TTITLE0=Embraceable You
TTITLE1=For Sentimental Reasons
TTITLE2=Blue Moon
TTITLE3=What A Wonderful World
TTITLE4=Stardust
TTITLE5=Manhattan
TTITLE6=S`Wonderful
TTITLE7=Isn`t It Romantic
TTITLE8=I Can`t Get Started
TTITLE9=But Not For Me
TTITLE10=A Kiss To Build A Dream On
TTITLE11=Baby, It`s Cold Outside
TTITLE12=Night And Day
TTITLE13=A Nightingale Sang In Berkeley Square
TTITLE14=Bewitched, Bothered and Bewilder
TTITLE15=I'm In The Mood For Love
TTITLE16=My Heart Stood Still
TTITLE17=Until The Real Thing Comes Alo
TTITLE18=Where Or When
TTITLE19=Someone To Watch Over Me
TTITLE20=Smile
TTITLE21=As Time Goes By
EXTD=YEAR: 2003
EXTT0=
EXTT1=
EXTT2=
EXTT3=
EXTT4=
EXTT5=
EXTT6=
EXTT7=
EXTT8=
EXTT9=
EXTT10=
EXTT11=
EXTT12=
EXTT13=
EXTT14=
EXTT15=
EXTT16=
EXTT17=
EXTT18=
EXTT19=
EXTT20=
EXTT21=
PLAYORDER=
